<svg fill="#000000" xmlns="http://www.w3.org/2000/svg"  viewBox="0 0 50 50" width="50px" height="50px"><path d="M 24.982422 2 A 1.0001 1.0001 0 0 0 24.535156 2.1132812 L 3.5351562 13.113281 A 1.0001 1.0001 0 0 0 3 14 L 3 45 A 1.0001 1.0001 0 0 0 4 46 L 11 46 A 1.0001 1.0001 0 0 0 12 45 L 12 28 L 38 28 L 38 45 A 1.0001 1.0001 0 0 0 39 46 L 46 46 A 1.0001 1.0001 0 0 0 47 45 L 47 14 A 1.0001 1.0001 0 0 0 46.464844 13.113281 L 25.464844 2.1132812 A 1.0001 1.0001 0 0 0 24.982422 2 z M 25 4.1289062 L 45 14.605469 L 45 44 L 40 44 L 40 27.167969 A 1.0001 1.0001 0 0 0 40 26.841797 L 40 19 A 1.0001 1.0001 0 0 0 39 18 L 11 18 A 1.0001 1.0001 0 0 0 10 19 L 10 26.832031 A 1.0001 1.0001 0 0 0 10 27.158203 L 10 44 L 5 44 L 5 14.605469 L 25 4.1289062 z M 12 20 L 38 20 L 38 26 L 12 26 L 12 20 z M 22 22 A 1.0001 1.0001 0 1 0 22 24 L 28 24 A 1.0001 1.0001 0 1 0 28 22 L 22 22 z"/></svg>