<svg fill="#000000" xmlns="http://www.w3.org/2000/svg"  viewBox="0 0 50 50" width="50px" height="50px"><path d="M 25 -0.0625 C 19.457031 -0.0625 14.9375 4.457031 14.9375 10 C 14.9375 13.269531 16.511719 16.160156 18.9375 18 L 2 18 C 1.476563 18 0.941406 18.183594 0.5625 18.5625 C 0.183594 18.941406 0 19.476563 0 20 L 0 29 C 0 29.523438 0.183594 30.058594 0.5625 30.4375 C 0.941406 30.816406 1.476563 31 2 31 L 4 31 L 4 49 C 4 49.550781 4.449219 50 5 50 L 10 50 C 10.550781 50 11 49.550781 11 49 L 11 44 L 39 44 L 39 49 C 39 49.550781 39.449219 50 40 50 L 45 50 C 45.550781 50 46 49.550781 46 49 L 46 31 L 48 31 C 48.523438 31 49.058594 30.816406 49.4375 30.4375 C 49.816406 30.058594 50 29.523438 50 29 L 50 20 C 50 19.476563 49.816406 18.941406 49.4375 18.5625 C 49.058594 18.183594 48.523438 18 48 18 L 31.0625 18 C 33.488281 16.160156 35.0625 13.269531 35.0625 10 C 35.0625 4.457031 30.542969 -0.0625 25 -0.0625 Z M 25 2.0625 C 29.398438 2.0625 32.9375 5.601563 32.9375 10 C 32.9375 14.398438 29.398438 17.9375 25 17.9375 C 20.601563 17.9375 17.0625 14.398438 17.0625 10 C 17.0625 5.601563 20.601563 2.0625 25 2.0625 Z M 19 8 L 19 12 L 31 12 L 31 8 Z M 2 20 L 5.84375 20 L 2 26.46875 Z M 8.15625 20 L 12.84375 20 L 7.46875 29 L 2.8125 29 Z M 15.15625 20 L 19.84375 20 L 14.46875 29 L 9.75 29 Z M 22.15625 20 L 23.96875 20 C 24.304688 20.035156 24.652344 20.0625 25 20.0625 C 25.347656 20.0625 25.695313 20.035156 26.03125 20 L 26.84375 20 L 21.46875 29 L 16.75 29 Z M 29.15625 20 L 33.84375 20 L 28.46875 29 L 23.75 29 Z M 36.15625 20 L 40.84375 20 L 35.46875 29 L 30.75 29 Z M 43.15625 20 L 47.78125 20 L 42.4375 29 L 37.75 29 Z M 48 23.5625 L 48 29 L 44.75 29 Z M 6 31 L 7.34375 31 C 7.683594 31.230469 8.128906 31.230469 8.46875 31 L 9 31 L 9 38.8125 C 8.992188 38.875 8.992188 38.9375 9 39 L 9 43 C 9 43.03125 9 43.0625 9 43.09375 L 9 48 L 6 48 Z M 11 31 L 14.34375 31 C 14.683594 31.230469 15.128906 31.230469 15.46875 31 L 21.34375 31 C 21.683594 31.230469 22.128906 31.230469 22.46875 31 L 28.34375 31 C 28.683594 31.230469 29.128906 31.230469 29.46875 31 L 35.34375 31 C 35.683594 31.230469 36.128906 31.230469 36.46875 31 L 39 31 L 39 38 L 11 38 Z M 41 31 L 42.34375 31 C 42.683594 31.230469 43.128906 31.230469 43.46875 31 L 44 31 L 44 48 L 41 48 L 41 43.15625 C 41.003906 43.105469 41.003906 43.050781 41 43 L 41 39 C 41 38.96875 41 38.9375 41 38.90625 Z M 11 40 L 39 40 L 39 42 L 11 42 Z"/></svg>